<mxfile host="app.diagrams.net" modified="2023-11-04T05:11:07.233Z" agent="Mozilla/5.0 (Windows NT 6.3; Win64; x64) AppleWebKit/537.36 (KHTML, like Gecko) Chrome/109.0.0.0 Safari/537.36 OPR/95.0.0.0" version="22.0.8" etag="El43cvprqtG1gXGuJjx1" type="github">
  <diagram name="Page-1" id="we6rM-M0azvE8GfYeq0f">
    <mxGraphModel>
      <root>
        <mxCell id="0" />
        <mxCell id="1" parent="0" />
      </root>
    </mxGraphModel>
  </diagram>
</mxfile>
